<svg width="30" height="30" xmlns="http://www.w3.org/2000/svg">
 <g>
  <title>Layer 1</title>
  <g id="svg_4" stroke="null">
   <path id="svg_1" fill="#dc1715" d="m24.44257,19.40835a11.9261,11.9261 0 0 0 2.53871,-7.40236c-0.01593,-6.36537 -5.25136,-11.75482 -11.61407,-11.94602a11.9832,11.9832 0 0 0 -9.81361,19.34838l-0.01726,0l0.13809,0.15402c0.27087,0.3346 0.55767,0.65592 0.86173,0.95998l8.46193,9.42324l8.46193,-9.42324c0.30539,-0.30406 0.59086,-0.62406 0.86173,-0.95998l0.13809,-0.15402l-0.01726,0l-0.00001,0z" stroke="null"/>
   <circle id="svg_2" fill="#fff" r="8.4938" cy="12.54108" cx="15" stroke="null"/>
   <path id="svg_3" fill="#db1917" clip-rule="evenodd" fill-rule="evenodd" d="m14.99698,13.38024l-2.64095,4.05769l-3.58102,-5.59127a1.12994,1.12994 0 0 1 0.33194,-1.5535a1.10338,1.10338 0 0 1 1.54022,0.33327l1.71283,2.68078l1.69956,-2.67547l0.00797,-0.01062a1.1711,1.1711 0 0 1 0.0478,-0.06639l0.02124,-0.02788l0.03983,-0.04647l0.01726,-0.01859l0.01859,-0.01992l0.0239,-0.02124l0.0239,-0.02257a0.8126,0.8126 0 0 1 0.13145,-0.10224l0.00929,-0.00664l0.01992,-0.01062c0.01992,-0.01328 0.03983,-0.02523 0.06108,-0.03585l0.02523,-0.01328l0.02124,-0.00929a0.98256,0.98256 0 0 1 0.05046,-0.02257c0.01593,-0.00797 0.03319,-0.01328 0.05709,-0.02124l0.04249,-0.01461a1.11135,1.11135 0 0 1 0.7887,0.05577l0.01992,0.00929a0.65592,0.65592 0 0 1 0.11021,0.06241l0.00929,0.00531a1.25342,1.25342 0 0 1 0.0956,0.07037l0.04116,0.03718l0.02656,0.02257l0.01726,0.01726a0.45144,0.45144 0 0 1 0.02124,0.02257l0.01859,0.02124l0.03585,0.03983l0.02257,0.03187l0.0478,0.06639l0.00531,0.00664l1.70487,2.6768l1.70885,-2.68078a1.11002,1.11002 0 0 1 1.54022,-0.3346c0.51783,0.33593 0.66654,1.03434 0.33194,1.55483l-3.58102,5.58995l-2.64626,-4.05769l0,0.00133l0.00002,-0.00002z" stroke="null"/>
  </g>
 </g>

</svg>